STARTFONT 2.1
COMMENT "$XConsortium: sys19.bdf /main/2 1996/10/29 18:22:20 drk $"
COMMENT "Hand-pixeled glyphs created with modified X Font Editor (Xfed)"
FONT -HP-HP System-Medium-R-Normal-Sans-15-150-72-72-P-100-ISO8859-1
SIZE 15 72 72 
FONTBOUNDINGBOX 15 19 0 -4
STARTPROPERTIES 25
COMMENT "Begin X Logical Font Description (XLFD) Version 1.5"
COPYRIGHT "(c) Copyright 1994, Hewlett Packard Company"
NOTICE "Created by the User Interaction Design Group, July 1994."
NOTICE "Hewlett Packard Company, 3000 Hanover St., Palo Alto, CA 94303, USA"
FONTNAME_REGISTRY ""
FOUNDRY "HP"
FAMILY_NAME "HP System"
WEIGHT_NAME "Medium"
SLANT "R"
ADD_STYLE_NAME "Sans"
SETWIDTH_NAME "Normal"
PIXEL_SIZE 15
POINT_SIZE 150
RESOLUTION_X 72
RESOLUTION_Y 72
SPACING "P"
AVERAGE_WIDTH 100
CHARSET_REGISTRY "ISO8859"
CHARSET_ENCODING "1"
COMMENT "End X Logical Font Description (XLFD)"
CHARSET_COLLECTIONS "ISO8859-1"
FULL_NAME "HP System19"
CAP_HEIGHT 12
X_HEIGHT 8
FONT_ASCENT 15
FONT_DESCENT 4
DEFAULT_CHAR 32
COMMENT "End of Font Properties"
ENDPROPERTIES
CHARS 191
STARTCHAR PrintableSpace
ENCODING 32
SWIDTH 333 0
DWIDTH 5 0
BBX 1 19 0 -4
BITMAP
00
00
00
00
00
00
00
00
00
00
00
00
00
00
00
00
00
00
00
ENDCHAR
STARTCHAR Exclamation
ENCODING 33
SWIDTH 400 0
DWIDTH 6 0
BBX 2 19 2 -4
BITMAP
00
00
C0
C0
C0
C0
C0
C0
C0
C0
C0
C0
00
00
C0
C0
00
00
00
ENDCHAR
STARTCHAR NeutrlDblQuote
ENCODING 34
SWIDTH 333 0
DWIDTH 5 0
BBX 3 19 1 -4
BITMAP
00
00
A0
A0
A0
A0
00
00
00
00
00
00
00
00
00
00
00
00
00
ENDCHAR
STARTCHAR NumberSign
ENCODING 35
SWIDTH 800 0
DWIDTH 12 0
BBX 12 19 0 -4
BITMAP
00
00
0440
0CC0
0CC0
0CC0
7FF0
1980
1980
1980
1980
FFE0
3300
3300
3300
2200
00
00
00
ENDCHAR
STARTCHAR DollarSign
ENCODING 36
SWIDTH 666 0
DWIDTH 10 0
BBX 8 19 1 -4
BITMAP
00
08
08
3C
6E
CB
C8
C8
78
1E
13
13
D3
76
3C
10
10
00
00
ENDCHAR
STARTCHAR PerCentSign
ENCODING 37
SWIDTH 866 0
DWIDTH 13 0
BBX 11 19 1 -4
BITMAP
00
70c0
d880
d980
d900
db00
7200
0600
0400
0c00
09c0
1b60
1360
3360
2360
61c0
00
00
00
ENDCHAR
STARTCHAR Ampersand
ENCODING 38
SWIDTH 733 0
DWIDTH 11 0
BBX 9 19 1 -4
BITMAP
00
00
3c00
6600
c000
c000
c200
6300
7f80
6300
c300
c300
c300
c300
e380
7e00
00
00
00
ENDCHAR
STARTCHAR SingleCloseQut
ENCODING 39
SWIDTH 333 0
DWIDTH 5 0
BBX 3 19 1 -4
BITMAP
00
00
60
60
60
C0
80
00
00
00
00
00
00
00
00
00
00
00
00
ENDCHAR
STARTCHAR OpenParen
ENCODING 40
SWIDTH 466 0
DWIDTH 7 0
BBX 5 19 2 -4
BITMAP
00
18
30
60
60
c0
c0
c0
c0
c0
c0
c0
c0
60
60
30
18
00
00
ENDCHAR
STARTCHAR CloseParen
ENCODING 41
SWIDTH 466 0
DWIDTH 7 0
BBX 5 19 1 -4
BITMAP
00
c0
60
30
30
18
18
18
18
18
18
18
18
30
30
60
c0
00
00
ENDCHAR
STARTCHAR Asterisk
ENCODING 42
SWIDTH 933 0
DWIDTH 14 0
BBX 10 19 2 -4
BITMAP
00
00
00
00
0c00
0C00
CCC0
EDC0
7F80
1e00
7F80
EDC0
CCC0
0C00
0c00
00
00
00
00
ENDCHAR
STARTCHAR PlusSign
ENCODING 43
SWIDTH 933 0
DWIDTH 14 0
BBX 10 19 2 -4
BITMAP
00
00
00
00
0C00
0C00
0C00
0C00
FFC0
FFC0
0C00
0C00
0C00
0C00
00
00
00
00
00
ENDCHAR
STARTCHAR Comma
ENCODING 44
SWIDTH 333 0
DWIDTH 5 0
BBX 3 19 1 -4
BITMAP
00
00
00
00
00
00
00
00
00
00
00
00
60
60
60
C0
80
00
00
ENDCHAR
STARTCHAR Hyphen
ENCODING 45
SWIDTH 933 0
DWIDTH 14 0
BBX 10 19 2 -4
BITMAP
00
00
00
00
00
00
00
00
FFC0
FFC0
00
00
00
00
00
00
00
00
00
ENDCHAR
STARTCHAR Period
ENCODING 46
SWIDTH 400 0
DWIDTH 6 0
BBX 2 19 2 -4
BITMAP
00
00
00
00
00
00
00
00
00
00
00
00
c0
C0
C0
00
00
00
00
ENDCHAR
STARTCHAR Slash
ENCODING 47
SWIDTH 600 0
DWIDTH 9 0
BBX 9 19 0 -4
BITMAP
0000
0180
0180
0300
0300
0600
0600
0c00
0c00
1800
1800
3000
3000
6000
6000
C000
C000
0000
0000
ENDCHAR
STARTCHAR Zero
ENCODING 48
SWIDTH 666 0
DWIDTH 10 0
BBX 8 19 1 -4
BITMAP
00
00
00
3C
66
42
C3
C3
C3
C3
C3
C3
42
66
3C
00
00
00
00
ENDCHAR
STARTCHAR One
ENCODING 49
SWIDTH 666 0
DWIDTH 10 0
BBX 5 19 2 -4
BITMAP
00
00
00
18
38
78
d8
18
18
18
18
18
18
18
18
00
00
00
00
ENDCHAR
STARTCHAR Two
ENCODING 50
SWIDTH 666 0
DWIDTH 10 0
BBX 8 19 1 -4
BITMAP
00
00
00
3C
66
C3
C3
03
06
0c
18
30
60
c0
FF
00
00
00
00
ENDCHAR
STARTCHAR Three
ENCODING 51
SWIDTH 666 0
DWIDTH 10 0
BBX 8 19 1 -4
BITMAP
00
00
00
3C
66
C3
C3
06
1C
06
03
C3
C3
66
3C
00
00
00
00
ENDCHAR
STARTCHAR Four
ENCODING 52
SWIDTH 666 0
DWIDTH 10 0
BBX 8 19 1 -4
BITMAP
00
00
00
0e
0e
1e
36
26
66
46
c6
ff
06
06
06
00
00
00
00
ENDCHAR
STARTCHAR Five
ENCODING 53
SWIDTH 666 0
DWIDTH 10 0
BBX 8 19 1 -4
BITMAP
00
00
00
fe
c0
c0
c0
fc
e6
03
03
03
c3
66
3c
00
00
00
00
ENDCHAR
STARTCHAR Six
ENCODING 54
SWIDTH 666 0
DWIDTH 10 0
BBX 8 19 1 -4
BITMAP
00
00
00
3c
66
42
c0
dc
e6
c3
c3
c3
c3
66
3c
00
00
00
00
ENDCHAR
STARTCHAR Seven
ENCODING 55
SWIDTH 666 0
DWIDTH 10 0
BBX 8 19 1 -4
BITMAP
00
00
00
FF
03
06
06
0C
0C
18
18
18
30
30
30
00
00
00
00
ENDCHAR
STARTCHAR Eight
ENCODING 56
SWIDTH 666 0
DWIDTH 10 0
BBX 8 19 1 -4
BITMAP
00
00
00
3C
66
C3
C3
66
3C
66
C3
C3
C3
66
3C
00
00
00
00
ENDCHAR
STARTCHAR Nine
ENCODING 57
SWIDTH 666 0
DWIDTH 10 0
BBX 8 19 1 -4
BITMAP
00
00
00
3C
66
C3
C3
C3
C3
67
3b
03
C2
66
3C
00
00
00
00
ENDCHAR
STARTCHAR Colon
ENCODING 58
SWIDTH 400 0
DWIDTH 6 0
BBX 2 19 2 -4
BITMAP
00
00
00
00
00
00
00
C0
C0
c0
00
00
c0
C0
C0
00
00
00
00
ENDCHAR
STARTCHAR Simicolon
ENCODING 59
SWIDTH 400 0
DWIDTH 6 0
BBX 3 19 1 -4
BITMAP
00
00
00
00
00
00
00
60
60
60
00
00
60
60
60
C0
80
00
00
ENDCHAR
STARTCHAR LessThanSign
ENCODING 60
SWIDTH 933 0
DWIDTH 14 0
BBX 10 19 2 -4
BITMAP
00
00
00
00
00C0
03C0
0F00
3C00
F000
F000
3C00
0F00
03C0
00C0
00
00
00
00
00
ENDCHAR
STARTCHAR EqualsSign
ENCODING 61
SWIDTH 933 0
DWIDTH 14 0
BBX 10 19 2 -4
BITMAP
00
00
00
00
00
00
FFC0
FFC0
0000
0000
FFC0
FFC0
00
00
00
00
00
00
00
ENDCHAR
STARTCHAR GreatrThanSign
ENCODING 62
SWIDTH 933 0
DWIDTH 14 0
BBX 10 19 2 -4
BITMAP
00
00
00
00
C000
F000
3C00
0F00
03C0
03C0
0F00
3C00
F000
C000
00
00
00
00
00
ENDCHAR
STARTCHAR QuestionMark
ENCODING 63
SWIDTH 600 0
DWIDTH 9 0
BBX 7 19 1 -4
BITMAP
00
00
7C
C6
C6
06
06
0C
18
30
30
30
00
00
30
30
00
00
00
ENDCHAR
STARTCHAR CommerclAtSign
ENCODING 64
SWIDTH 1066 0
DWIDTH 16 0
BBX 12 19 2 -4
BITMAP
00
00
0F80
38C0
6060
6060
C7e0
CC60
CC60
CC60
CC60
CC60
67B0
6000
3800
0FC0
00
00
00
ENDCHAR
STARTCHAR A
ENCODING 65
SWIDTH 800 0
DWIDTH 12 0
BBX 12 19 0 -4
BITMAP
00
00
00
0600
0600
0F00
0f00
1980
1980
30c0
30C0
7fe0
6060
c030
C030
00
00
00
00
ENDCHAR
STARTCHAR B
ENCODING 66
SWIDTH 666 0
DWIDTH 10 0
BBX 8 19 1 -4
BITMAP
00
00
00
fc00
c600
c300
c300
c600
fc00
c600
c300
c300
c300
c600
fc00
00
00
00
00
ENDCHAR
STARTCHAR C
ENCODING 67
SWIDTH 800 0
DWIDTH 12 0
BBX 10 19 1 -4
BITMAP
00
00
00
1F00
71C0
60C0
C000
C000
C000
C000
C000
C000
60C0
71C0
1F00
00
00
00
00
ENDCHAR
STARTCHAR D
ENCODING 68
SWIDTH 733 0
DWIDTH 11 0
BBX 9 19 1 -4
BITMAP
00
00
00
fc00
c700
c300
c180
c180
c180
c180
c180
c180
c300
c700
fc00
00
00
00
00
ENDCHAR
STARTCHAR E
ENCODING 69
SWIDTH 600 0
DWIDTH 9 0
BBX 7 19 1 -4
BITMAP
00
00
00
fe
c0
c0
c0
c0
fe
c0
c0
c0
c0
c0
fe
00
00
00
00
ENDCHAR
STARTCHAR F
ENCODING 70
SWIDTH 600 0
DWIDTH 9 0
BBX 7 19 1 -4
BITMAP
00
00
00
FE
C0
C0
C0
C0
FE
C0
C0
C0
C0
C0
C0
00
00
00
00
ENDCHAR
STARTCHAR G
ENCODING 71
SWIDTH 800 0
DWIDTH 12 0
BBX 10 19 1 -4
BITMAP
00
00
00
1F00
71C0
60C0
C000
C000
C000
C7C0
C0C0
C0C0
60C0
70C0
1F80
00
00
00
00
ENDCHAR
STARTCHAR H
ENCODING 72
SWIDTH 733 0
DWIDTH 11 0
BBX 9 19 1 -4
BITMAP
00
00
00
C180
C180
C180
C180
C180
FF80
C180
C180
C180
C180
C180
C180
00
00
00
00
ENDCHAR
STARTCHAR I
ENCODING 73
SWIDTH 266 0
DWIDTH 4 0
BBX 2 19 1 -4
BITMAP
00
00
00
C0
C0
C0
C0
C0
C0
C0
C0
C0
C0
C0
C0
00
00
00
00
ENDCHAR
STARTCHAR J
ENCODING 74
SWIDTH 600 0
DWIDTH 9 0
BBX 7 19 1 -4
BITMAP
00
00
00
06
06
06
06
06
06
06
06
06
C6
C6
7C
00
00
00
00
ENDCHAR
STARTCHAR K
ENCODING 75
SWIDTH 733 0
DWIDTH 11 0
BBX 9 19 1 -4
BITMAP
00
00
00
C180
C300
C600
CC00
D800
F000
F000
D800
CC00
C600
C300
C180
00
00
00
00
ENDCHAR
STARTCHAR L
ENCODING 76
SWIDTH 600 0
DWIDTH 9 0
BBX 7 19 1 -4
BITMAP
00
00
00
C0
C0
C0
C0
C0
C0
C0
C0
C0
C0
C0
FE
00
00
00
00
ENDCHAR
STARTCHAR M
ENCODING 77
SWIDTH 933 0
DWIDTH 14 0
BBX 12 19 1 -4
BITMAP
00
00
00
C030
C030
E070
E070
F0F0
D0B0
D9B0
C930
CF30
C630
C630
C030
00
00
00
00
ENDCHAR
STARTCHAR N
ENCODING 78
SWIDTH 800 0
DWIDTH 12 0
BBX 10 19 1 -4
BITMAP
00
00
00
C0C0
E0C0
f0C0
F0C0
D8C0
CCC0
CCC0
C6C0
C3C0
C1C0
C1C0
C0C0
00
00
00
00
ENDCHAR
STARTCHAR O
ENCODING 79
SWIDTH 866 0
DWIDTH 13 0
BBX 11 19 1 -4
BITMAP
00
00
00
1F00
71C0
60C0
C060
C060
C060
C060
C060
C060
60C0
71C0
1F00
00
00
00
00
ENDCHAR
STARTCHAR P
ENCODING 80
SWIDTH 666 0
DWIDTH 10 0
BBX 8 19 1 -4
BITMAP
00
00
00
FC
C6
C3
C3
C3
C6
FC
C0
C0
C0
C0
C0
00
00
00
00
ENDCHAR
STARTCHAR Q
ENCODING 81
SWIDTH 866 0
DWIDTH 13 0
BBX 11 19 1 -4
BITMAP
00
00
00
1F00
71C0
60C0
C060
C060
C060
C060
C060
C060
66C0
73C0
1F80
00C0
0060
00
00
ENDCHAR
STARTCHAR R
ENCODING 82
SWIDTH 666 0
DWIDTH 10 0
BBX 8 19 1 -4
BITMAP
00
00
00
FC
C6
C3
C3
C3
C6
FE
C3
C3
C3
C3
C3
00
00
00
00
ENDCHAR
STARTCHAR S
ENCODING 83
SWIDTH 733 0
DWIDTH 11 0
BBX 9 19 1 -4
BITMAP
00
00
00
3C00
6700
C300
C000
E000
7C00
1F00
0380
0180
C180
E300
3E00
00
00
00
00
ENDCHAR
STARTCHAR T
ENCODING 84
SWIDTH 666 0
DWIDTH 10 0
BBX 10 19 0 -4
BITMAP
00
00
00
FFC0
0C00
0C00
0C00
0C00
0C00
0C00
0C00
0C00
0C00
0C00
0C00
00
00
00
00
ENDCHAR
STARTCHAR U
ENCODING 85
SWIDTH 800 0
DWIDTH 12 0
BBX 10 19 1 -4
BITMAP
00
00
00
C0C0
C0C0
C0C0
C0C0
C0C0
C0C0
C0C0
C0C0
C0C0
6180
7380
1E00
00
00
00
00
ENDCHAR
STARTCHAR V
ENCODING 86
SWIDTH 800 0
DWIDTH 12 0
BBX 12 19 0 -4
BITMAP
00
00
00
C030
c030
6060
6060
30C0
30c0
1980
1980
0f00
0f00
0600
0600
00
00
00
00
ENDCHAR
STARTCHAR W
ENCODING 87
SWIDTH 1000 0
DWIDTH 15 0
BBX 15 19 0 -4
BITMAP
00
00
00
C106
C106
C386
638C
628C
66CC
36D8
3458
3c78
1C70
1830
1830
00
00
00
00
ENDCHAR
STARTCHAR X
ENCODING 88
SWIDTH 866 0
DWIDTH 13 0
BBX 13 19 0 -4
BITMAP
00
00
00
C018
6030
3060
18C0
0D80
0700
0700
0D80
18C0
3060
6030
C018
00
00
00
00
ENDCHAR
STARTCHAR Y
ENCODING 89
SWIDTH 800 0
DWIDTH 12 0
BBX 10 19 1 -4
BITMAP
00
00
00
C0C0
C0C0
6180
3300
3f00
1e00
0c00
0c00
0C00
0C00
0C00
0C00
00
00
00
00
ENDCHAR
STARTCHAR Z
ENCODING 90
SWIDTH 733 0
DWIDTH 11 0
BBX 9 19 1 -4
BITMAP
00
00
00
FF80
0180
0300
0600
0600
0C00
1800
3000
3000
6000
C000
FF80
00
00
00
00
ENDCHAR
STARTCHAR OpenBracket
ENCODING 91
SWIDTH 466 0
DWIDTH 7 0
BBX 4 19 2 -4
BITMAP
00
F0
C0
C0
C0
C0
C0
C0
C0
C0
C0
C0
C0
C0
C0
C0
F0
00
00
ENDCHAR
STARTCHAR BackSlash
ENCODING 92
SWIDTH 600 0
DWIDTH 9 0
BBX 9 19 0 -4
BITMAP
00
C0
C0
60
60
30
30
18
18
0c
0c
06
06
03
03
0180
0180
00
00
ENDCHAR
STARTCHAR CloseBracket
ENCODING 93
SWIDTH 466 0
DWIDTH 7 0
BBX 4 19 1 -4
BITMAP
00
F0
30
30
30
30
30
30
30
30
30
30
30
30
30
30
F0
00
00
ENDCHAR
STARTCHAR Circumflex
ENCODING 94
SWIDTH 733 0
DWIDTH 11 0
BBX 7 19 2 -4
BITMAP
00
00
00
1000
3800
6c00
c600
00
00
00
00
00
00
00
00
00
00
00
00
ENDCHAR
STARTCHAR Underscore
ENCODING 95
SWIDTH 533 0
DWIDTH 8 0
BBX 8 19 0 -4
BITMAP
00
00
00
00
00
00
00
00
00
00
00
00
00
00
00
FF
00
00
00
ENDCHAR
STARTCHAR SingleOpenQuot
ENCODING 96
SWIDTH 333 0
DWIDTH 5 0
BBX 3 19 1 -4
BITMAP
00
00
20
60
C0
C0
c0
00
00
00
00
00
00
00
00
00
00
00
00
ENDCHAR
STARTCHAR a
ENCODING 97
SWIDTH 600 0
DWIDTH 9 0
BBX 7 19 1 -4
BITMAP
00
00
00
00
00
00
00
3C
66
06
7E
C6
C6
CE
76
00
00
00
00
ENDCHAR
STARTCHAR b
ENCODING 98
SWIDTH 666 0
DWIDTH 10 0
BBX 8 19 1 -4
BITMAP
00
00
00
C0
C0
C0
C0
DC
E6
C3
C3
C3
C3
E6
DC
00
00
00
00
ENDCHAR
STARTCHAR c
ENCODING 99
SWIDTH 600 0
DWIDTH 9 0
BBX 7 19 1 -4
BITMAP
00
00
00
00
00
00
00
3C
66
C2
C0
C0
C2
66
3C
00
00
00
00
ENDCHAR
STARTCHAR d
ENCODING 100
SWIDTH 666 0
DWIDTH 10 0
BBX 8 19 1 -4
BITMAP
00
00
00
03
03
03
03
3B
67
C3
C3
C3
C3
67
3B
00
00
00
00
ENDCHAR
STARTCHAR e
ENCODING 101
SWIDTH 666 0
DWIDTH 10 0
BBX 8 19 1 -4
BITMAP
00
00
00
00
00
00
00
3C
66
C3
FF
C0
C0
63
3e
00
00
00
00
ENDCHAR
STARTCHAR f
ENCODING 102
SWIDTH 333 0
DWIDTH 5 0
BBX 5 19 0 -4
BITMAP
00
00
00
38
60
60
60
F8
60
60
60
60
60
60
60
00
00
00
00
ENDCHAR
STARTCHAR g
ENCODING 103
SWIDTH 666 0
DWIDTH 10 0
BBX 8 19 1 -4
BITMAP
00
00
00
00
00
00
00
3B
67
C3
C3
C3
C3
67
3B
03
66
3C
00
ENDCHAR
STARTCHAR h
ENCODING 104
SWIDTH 666 0
DWIDTH 10 0
BBX 8 19 1 -4
BITMAP
00
00
00
C0
C0
C0
C0
DE
E3
C3
C3
C3
C3
C3
C3
00
00
00
00
ENDCHAR
STARTCHAR i
ENCODING 105
SWIDTH 266 0
DWIDTH 4 0
BBX 2 19 1 -4
BITMAP
00
00
00
C0
C0
00
00
C0
C0
C0
C0
C0
C0
C0
C0
00
00
00
00
ENDCHAR
STARTCHAR j
ENCODING 106
SWIDTH 333 0
DWIDTH 5 0
BBX 3 19 1 -4
BITMAP
00
00
00
60
60
00
00
60
60
60
60
60
60
60
60
60
60
C0
00
ENDCHAR
STARTCHAR k
ENCODING 107
SWIDTH 600 0
DWIDTH 9 0
BBX 7 19 1 -4
BITMAP
00
00
00
C0
C0
C0
C0
C6
CC
D8
F0
F0
D8
CC
C6
00
00
00
00
ENDCHAR
STARTCHAR l
ENCODING 108
SWIDTH 266 0
DWIDTH 4 0
BBX 2 19 1 -4
BITMAP
00
00
00
C0
C0
C0
C0
C0
C0
C0
C0
C0
C0
C0
C0
00
00
00
00
ENDCHAR
STARTCHAR m
ENCODING 109
SWIDTH 933 0
DWIDTH 14 0
BBX 12 19 1 -4
BITMAP
00
00
00
00
00
00
00
DDE0
E730
C630
C630
C630
C630
C630
C630
00
00
00
00
ENDCHAR
STARTCHAR n
ENCODING 110
SWIDTH 666 0
DWIDTH 10 0
BBX 8 19 1 -4
BITMAP
00
00
00
00
00
00
00
DE
E3
C3
C3
C3
C3
C3
C3
00
00
00
00
ENDCHAR
STARTCHAR o
ENCODING 111
SWIDTH 666 0
DWIDTH 10 0
BBX 8 19 1 -4
BITMAP
00
00
00
00
00
00
00
3C
66
C3
C3
C3
C3
66
3C
00
00
00
00
ENDCHAR
STARTCHAR p
ENCODING 112
SWIDTH 666 0
DWIDTH 10 0
BBX 8 19 1 -4
BITMAP
00
00
00
00
00
00
00
DC
E6
C3
C3
C3
C3
E6
DC
C0
C0
C0
00
ENDCHAR
STARTCHAR q
ENCODING 113
SWIDTH 666 0
DWIDTH 10 0
BBX 8 19 1 -4
BITMAP
00
00
00
00
00
00
00
3B
67
C3
C3
C3
C3
67
3B
03
03
03
00
ENDCHAR
STARTCHAR r
ENCODING 114
SWIDTH 400 0
DWIDTH 6 0
BBX 5 19 1 -4
BITMAP
00
00
00
00
00
00
00
D8
E0
C0
C0
C0
C0
C0
C0
00
00
00
00
ENDCHAR
STARTCHAR s
ENCODING 115
SWIDTH 600 0
DWIDTH 9 0
BBX 7 19 1 -4
BITMAP
00
00
00
00
00
00
00
7c
c6
e0
78
1c
0e
c6
7c
00
00
00
00
ENDCHAR
STARTCHAR t
ENCODING 116
SWIDTH 333 0
DWIDTH 5 0
BBX 5 19 0 -4
BITMAP
00
00
00
00
20
60
60
F8
60
60
60
60
60
60
38
00
00
00
00
ENDCHAR
STARTCHAR u
ENCODING 117
SWIDTH 666 0
DWIDTH 10 0
BBX 8 19 1 -4
BITMAP
00
00
00
00
00
00
00
C3
C3
C3
C3
C3
C3
C7
7B
00
00
00
00
ENDCHAR
STARTCHAR v
ENCODING 118
SWIDTH 666 0
DWIDTH 10 0
BBX 8 19 1 -4
BITMAP
00
00
00
00
00
00
00
C3
C3
66
66
3c
3C
18
18
00
00
00
00
ENDCHAR
STARTCHAR w
ENCODING 119
SWIDTH 800 0
DWIDTH 12 0
BBX 12 19 0 -4
BITMAP
00
00
00
00
00
00
00
c630
c630
c630
6f60
6960
39c0
30c0
30c0
00
00
00
00
ENDCHAR
STARTCHAR x
ENCODING 120
SWIDTH 600 0
DWIDTH 9 0
BBX 9 19 0 -4
BITMAP
00
00
00
00
00
00
00
C180
6300
3600
1C00
1C00
3600
6300
C180
00
00
00
00
ENDCHAR
STARTCHAR y
ENCODING 121
SWIDTH 666 0
DWIDTH 10 0
BBX 8 19 1 -4
BITMAP
00
00
00
00
00
00
00
C3
C3
66
66
3c
3C
18
18
30
70
60
00
ENDCHAR
STARTCHAR z
ENCODING 122
SWIDTH 600 0
DWIDTH 9 0
BBX 7 19 1 -4
BITMAP
00
00
00
00
00
00
00
Fe
06
0c
18
30
60
C0
Fe
00
00
00
00
ENDCHAR
STARTCHAR OpenBrace
ENCODING 123
SWIDTH 533 0
DWIDTH 8 0
BBX 6 19 1 -4
BITMAP
00
1C
30
30
30
30
30
20
C0
20
30
30
30
30
30
30
1C
00
00
ENDCHAR
STARTCHAR LongVertMark
ENCODING 124
SWIDTH 400 0
DWIDTH 6 0
BBX 2 19 2 -4
BITMAP
00
00
C0
C0
C0
C0
C0
C0
00
00
C0
C0
C0
C0
C0
C0
00
00
00
ENDCHAR
STARTCHAR CloseBrace
ENCODING 125
SWIDTH 533 0
DWIDTH 8 0
BBX 6 19 1 -4
BITMAP
00
E0
30
30
30
30
30
10
0C
10
30
30
30
30
30
30
E0
00
00
ENDCHAR
STARTCHAR OneWavyLine
ENCODING 126
SWIDTH 800 0
DWIDTH 12 0
BBX 10 19 1 -4
BITMAP
00
00
00
00
00
00
00
7040
fcc0
cfc0
8380
0000
00
00
00
00
00
00
00
ENDCHAR
STARTCHAR MediumShading
ENCODING 127
SWIDTH 933 0
DWIDTH 14 0
BBX 14 19 0 -4
BITMAP
aaa8
5554
aaa8
5554
aaa8
5554
aaa8
5554
aaa8
5554
aaa8
5554
aaa8
5554
aaa8
5554
aaa8
5554
aaa8
ENDCHAR
STARTCHAR InvExclamation
ENCODING 161
SWIDTH 400 0
DWIDTH 6 0
BBX 2 19 2 -4
BITMAP
00
00
00
C0
C0
00
00
C0
C0
C0
C0
C0
C0
C0
C0
C0
C0
00
00
ENDCHAR
STARTCHAR CentSign
ENCODING 162
SWIDTH 600 0
DWIDTH 9 0
BBX 7 19 1 -4
BITMAP
00
00
00
00
04
04
3C
6E
CA
C8
D8
D2
76
3C
20
20
00
00
00
ENDCHAR
STARTCHAR SterlingSign
ENCODING 163
SWIDTH 666 0
DWIDTH 10 0
BBX 8 19 1 -4
BITMAP
00
00
00
1E
33
63
60
60
FC
60
60
FC
60
60
FF
00
00
00
00
ENDCHAR
STARTCHAR CurrencySymbol
ENCODING 164
SWIDTH 800 0
DWIDTH 12 0
BBX 10 19 1 -4
BITMAP
00
00
00
4080
EDC0
7F80
3300
6180
6180
3300
7F80
EDC0
4080
00
00
00
00
00
00
ENDCHAR
STARTCHAR Yensign
ENCODING 165
SWIDTH 800 0
DWIDTH 12 0
BBX 10 19 1 -4
BITMAP
00
00
00
C0C0
C0C0
6180
3300
3f00
1e00
0c00
7f80
0c00
7f80
0C00
0C00
00
00
00
00
ENDCHAR
STARTCHAR BrokenVertMark
ENCODING 166
SWIDTH 400 0
DWIDTH 6 0
BBX 2 19 2 -4
BITMAP
00
00
C0
C0
C0
C0
C0
C0
00
00
C0
C0
C0
C0
C0
C0
00
00
00
ENDCHAR
STARTCHAR SectionMark
ENCODING 167
SWIDTH 533 0
DWIDTH 8 0
BBX 6 19 1 -4
BITMAP
00
00
00
78
cC
C4
60
f0
98
8c
c4
64
3c
18
8c
cc
78
00
00
ENDCHAR
STARTCHAR diaeresisAccnt
ENCODING 168
SWIDTH 533 0
DWIDTH 8 0
BBX 6 19 1 -4
BITMAP
00
00
00
cc
cc
00
00
00
00
00
00
00
00
00
00
00
00
00
00
ENDCHAR
STARTCHAR CopyrightSign
ENCODING 169
SWIDTH 666 0
DWIDTH 10 0
BBX 8 19 1 -4
BITMAP
00
00
00
00
3c
42
9d
b1
b1
b1
9d
42
3c
00
00
00
00
00
00
ENDCHAR
STARTCHAR FemaleOrdinal
ENCODING 170
SWIDTH 533 0
DWIDTH 8 0
BBX 6 19 1 -4
BITMAP
00
00
78
0C
7C
CC
CC
7C
00
FC
00
00
00
00
00
00
00
00
00
ENDCHAR
STARTCHAR DblOpenAnglQut
ENCODING 171
SWIDTH 666 0
DWIDTH 10 0
BBX 8 19 1 -4
BITMAP
00
00
00
00
00
33
66
66
CC
cc
66
66
33
00
00
00
00
00
00
ENDCHAR
STARTCHAR NotSign
ENCODING 172
SWIDTH 933 0
DWIDTH 14 0
BBX 10 19 2 -4
BITMAP
00
00
00
00
00
00
00
00
FFC0
FFC0
00c0
00c0
00c0
00
00
00
00
00
00
ENDCHAR
STARTCHAR SoftHyphen
ENCODING 173
SWIDTH 933 0
DWIDTH 14 0
BBX 10 19 2 -4
BITMAP
00
00
00
00
00
00
00
00
FFC0
FFC0
00
00
00
00
00
00
00
00
00
ENDCHAR
STARTCHAR RegisTradeMark
ENCODING 174
SWIDTH 666 0
DWIDTH 10 0
BBX 8 19 1 -4
BITMAP
00
00
00
00
3c
42
b9
ad
b9
ad
a5
42
3c
00
00
00
00
00
00
ENDCHAR
STARTCHAR macronAccent
ENCODING 175
SWIDTH 733 0
DWIDTH 11 0
BBX 7 19 2 -4
BITMAP
00
00
00
Fe00
Fe00
00
00
00
00
00
00
00
00
00
00
00
00
00
00
ENDCHAR
STARTCHAR DegreeSign
ENCODING 176
SWIDTH 533 0
DWIDTH 8 0
BBX 6 19 1 -4
BITMAP
00
00
00
78
CC
CC
CC
78
00
00
00
00
00
00
00
00
00
00
00
ENDCHAR
STARTCHAR PlusOverMinus
ENCODING 177
SWIDTH 933 0
DWIDTH 14 0
BBX 8 19 3 -4
BITMAP
00
00
00
0000
1800
1800
ff00
ff00
1800
1800
0000
ff00
ff00
0000
00
00
00
00
00
ENDCHAR
STARTCHAR SupNumberTwo
ENCODING 178
SWIDTH 466 0
DWIDTH 7 0
BBX 5 19 1 -4
BITMAP
0000
0000
0000
7000
8800
0800
1000
2000
4000
f800
00
00
00
00
00
00
0000
0000
0000
ENDCHAR
STARTCHAR SupNumberThree
ENCODING 179
SWIDTH 466 0
DWIDTH 7 0
BBX 5 19 1 -4
BITMAP
00
00
0000
7000
9800
1800
3000
1800
9800
7000
0000
0000
0000
0000
0000
0000
00
00
00
ENDCHAR
STARTCHAR acuteAccent
ENCODING 180
SWIDTH 533 0
DWIDTH 8 0
BBX 4 19 2 -4
BITMAP
00
00
00
30
60
c0
00
00
00
00
00
00
00
00
00
00
00
00
00
ENDCHAR
STARTCHAR muGreek
ENCODING 181
SWIDTH 800 0
DWIDTH 12 0
BBX 11 19 0 -4
BITMAP
00
00
00
00
00
00
00
18c0
18c0
18c0
3180
3180
3180
7be0
6ee0
6000
c000
C000
0000
ENDCHAR
STARTCHAR ParagraphSign
ENCODING 182
SWIDTH 600 0
DWIDTH 9 0
BBX 8 19 1 -4
BITMAP
00
00
00
7f
f2
f2
f2
f2
72
12
12
12
12
12
12
12
00
00
00
ENDCHAR
STARTCHAR middleDot
ENCODING 183
SWIDTH 400 0
DWIDTH 6 0
BBX 2 19 2 -4
BITMAP
00
00
00
00
00
00
00
00
c0
c0
00
00
00
00
00
00
00
00
00
ENDCHAR
STARTCHAR cedilla
ENCODING 184
SWIDTH 600 0
DWIDTH 9 0
BBX 5 19 2 -4
BITMAP
00
00
00
0000
0000
0000
0000
0000
0000
0000
0000
0000
0000
0000
0000
2000
3000
9800
7000
ENDCHAR
STARTCHAR SupNumberOne
ENCODING 185
SWIDTH 400 0
DWIDTH 6 0
BBX 3 19 2 -4
BITMAP
00
00
0000
2000
6000
a000
2000
2000
2000
2000
0000
0000
0000
0000
0000
0000
00
00
00
ENDCHAR
STARTCHAR MaleOrdinal
ENCODING 186
SWIDTH 533 0
DWIDTH 8 0
BBX 6 19 1 -4
BITMAP
00
00
78
CC
CC
CC
CC
78
00
FC
00
00
00
00
00
00
00
00
00
ENDCHAR
STARTCHAR DblClosAnglQut
ENCODING 187
SWIDTH 666 0
DWIDTH 10 0
BBX 8 19 1 -4
BITMAP
00
00
00
00
00
cc
66
66
33
33
66
66
cc
00
00
00
00
00
00
ENDCHAR
STARTCHAR FracOneFourth
ENCODING 188
SWIDTH 1000 0
DWIDTH 15 0
BBX 12 19 2 -4
BITMAP
00
00
00c0
2080
6180
a100
2300
2260
2660
24a0
0CA0
0920
19F0
1020
3020
00
00
00
00
ENDCHAR
STARTCHAR FracOneHalf
ENCODING 189
SWIDTH 1000 0
DWIDTH 15 0
BBX 13 19 1 -4
BITMAP
00
00
00c0
2080
6180
a100
2300
2200
2670
2488
0C08
0810
1820
1040
30F8
00
00
00
00
ENDCHAR
STARTCHAR FracThreeFour
ENCODING 190
SWIDTH 1000 0
DWIDTH 15 0
BBX 13 19 1 -4
BITMAP
00
00
0060
7040
98C0
1880
3180
1930
9B30
7250
0650
0490
0cF8
0810
1810
00
00
00
00
ENDCHAR
STARTCHAR InvertQuestion
ENCODING 191
SWIDTH 600 0
DWIDTH 9 0
BBX 7 19 1 -4
BITMAP
00
00
00
18
18
00
00
18
18
18
38
70
e0
C0
C6
e6
7C
00
00
ENDCHAR
STARTCHAR Agrave
ENCODING 192
SWIDTH 800 0
DWIDTH 12 0
BBX 12 19 0 -4
BITMAP
1800
0c00
0600
0000
0600
0600
0f00
0f00
1980
1980
30C0
3fC0
6060
6060
C030
0000
00
00
00
ENDCHAR
STARTCHAR Aacute
ENCODING 193
SWIDTH 800 0
DWIDTH 12 0
BBX 12 19 0 -4
BITMAP
0180
0300
0600
0000
0600
0600
0f00
0f00
1980
1980
30C0
3FC0
6060
6060
C030
00
00
00
00
ENDCHAR
STARTCHAR Acircumflex
ENCODING 194
SWIDTH 800 0
DWIDTH 12 0
BBX 12 19 0 -4
BITMAP
0600
0F00
1980
0000
0600
0600
0f00
0f00
1980
1980
30C0
3FC0
6060
6060
C030
00
00
00
00
ENDCHAR
STARTCHAR Atilde
ENCODING 195
SWIDTH 800 0
DWIDTH 12 0
BBX 12 19 0 -4
BITMAP
1c40
3fc0
2380
0000
0600
0600
0f00
0f00
1980
1980
30C0
3FC0
6060
6060
C030
00
00
00
00
ENDCHAR
STARTCHAR Adiaeresis
ENCODING 196
SWIDTH 800 0
DWIDTH 12 0
BBX 12 19 0 -4
BITMAP
1980
1980
0000
0600
0600
0f00
0f00
1980
1980
30C0
30C0
7fe0
6060
C030
c030
00
00
00
0000
ENDCHAR
STARTCHAR Abolle
ENCODING 197
SWIDTH 800 0
DWIDTH 12 0
BBX 12 19 0 -4
BITMAP
0f00
1980
1980
0f00
0600
0F00
0f00
1980
1980
30c0
30C0
7Fe0
6060
c030
C030
00
00
00
00
ENDCHAR
STARTCHAR AEdiphthong
ENCODING 198
SWIDTH 1133 0
DWIDTH 17 0
BBX 15 19 1 -4
BITMAP
00
00
00
07FE
0780
0D80
0D80
1980
19FE
3180
3180
7F80
6180
C180
C1FE
00
00
00
00
ENDCHAR
STARTCHAR Ccedilla
ENCODING 199
SWIDTH 800 0
DWIDTH 12 0
BBX 10 19 1 -4
BITMAP
00
00
00
1F00
71C0
60C0
C000
C000
C000
C000
C000
C000
60C0
71C0
1F00
0400
0600
1300
0E00
ENDCHAR
STARTCHAR Egrave
ENCODING 200
SWIDTH 600 0
DWIDTH 9 0
BBX 7 19 1 -4
BITMAP
c0
60
30
00
fe
c0
c0
c0
fe
c0
c0
c0
c0
c0
fe
00
00
00
00
ENDCHAR
STARTCHAR Eacute
ENCODING 201
SWIDTH 666 0
DWIDTH 10 0
BBX 8 19 1 -4
BITMAP
06
0c
18
00
FF
C0
C0
C0
FF
C0
C0
C0
C0
C0
FF
00
00
00
00
ENDCHAR
STARTCHAR Ecircumflex
ENCODING 202
SWIDTH 600 0
DWIDTH 9 0
BBX 7 19 1 -4
BITMAP
30
78
cc
00
Fe
C0
C0
C0
Fe
C0
C0
C0
C0
C0
Fe
00
00
00
00
ENDCHAR
STARTCHAR Ediaeresis
ENCODING 203
SWIDTH 600 0
DWIDTH 9 0
BBX 7 19 1 -4
BITMAP
00
cc
cc
00
fe
c0
c0
c0
fe
c0
c0
c0
c0
c0
fe
00
00
00
00
ENDCHAR
STARTCHAR Igrave
ENCODING 204
SWIDTH 400 0
DWIDTH 6 0
BBX 4 19 0 -4
BITMAP
c0
60
30
00
30
30
30
30
30
30
30
30
30
30
30
00
00
00
00
ENDCHAR
STARTCHAR Iacute
ENCODING 205
SWIDTH 400 0
DWIDTH 6 0
BBX 4 19 2 -4
BITMAP
30
60
c0
00
C0
C0
C0
C0
C0
C0
C0
C0
C0
C0
C0
00
00
00
00
ENDCHAR
STARTCHAR Icircumflex
ENCODING 206
SWIDTH 400 0
DWIDTH 6 0
BBX 6 19 0 -4
BITMAP
30
78
cc
00
30
30
30
30
30
30
30
30
30
30
30
00
00
00
00
ENDCHAR
STARTCHAR Idiaeresis
ENCODING 207
SWIDTH 400 0
DWIDTH 6 0
BBX 6 19 0 -4
BITMAP
00
cc
cc
00
30
30
30
30
30
30
30
30
30
30
30
00
00
00
00
ENDCHAR
STARTCHAR Eth
ENCODING 208
SWIDTH 800 0
DWIDTH 12 0
BBX 11 19 0 -4
BITMAP
00
00
00
7F00
61C0
60C0
6060
6060
FC60
6060
6060
6060
60C0
61C0
7F00
00
00
00
00
ENDCHAR
STARTCHAR Ntilde
ENCODING 209
SWIDTH 800 0
DWIDTH 12 0
BBX 10 19 1 -4
BITMAP
3880
7f80
4700
0000
c0c0
e0c0
e0c0
f0c0
d8c0
ccc0
c6c0
c3c0
c1c0
c1c0
c0c0
00
00
00
00
ENDCHAR
STARTCHAR Ograve
ENCODING 210
SWIDTH 866 0
DWIDTH 13 0
BBX 11 19 1 -4
BITMAP
3000
1800
0c00
0000
1F00
71C0
60C0
C060
C060
C060
C060
C060
60C0
71C0
1F00
00
00
00
00
ENDCHAR
STARTCHAR Oacute
ENCODING 211
SWIDTH 866 0
DWIDTH 13 0
BBX 11 19 1 -4
BITMAP
0180
0300
0600
0000
1F00
71C0
60C0
C060
C060
C060
C060
C060
60C0
71C0
1F00
00
00
00
00
ENDCHAR
STARTCHAR Ocircumflex
ENCODING 212
SWIDTH 866 0
DWIDTH 13 0
BBX 11 19 1 -4
BITMAP
0600
0f00
1980
0000
1F00
71C0
60C0
C060
C060
C060
C060
C060
60C0
71C0
1F00
00
00
00
00
ENDCHAR
STARTCHAR Otilde
ENCODING 213
SWIDTH 866 0
DWIDTH 13 0
BBX 11 19 1 -4
BITMAP
1c40
3fc0
2380
0000
1f00
71c0
60c0
c060
c060
c060
c060
c060
60c0
71c0
1f00
00
00
00
00
ENDCHAR
STARTCHAR Odiaeresis
ENCODING 214
SWIDTH 866 0
DWIDTH 13 0
BBX 11 19 1 -4
BITMAP
3180
3180
0000
1f00
71c0
60c0
c060
C060
C060
C060
C060
C060
60C0
71C0
1F00
00
00
00
00
ENDCHAR
STARTCHAR MultiplySign
ENCODING 215
SWIDTH 933 0
DWIDTH 14 0
BBX 8 19 3 -4
BITMAP
00
00
00
00
0000
c300
e700
7e00
3c00
3c00
7e00
e700
c300
0000
00
00
00
00
00
ENDCHAR
STARTCHAR Ooblique
ENCODING 216
SWIDTH 866 0
DWIDTH 13 0
BBX 11 19 1 -4
BITMAP
00
00
00C0
1F80
71C0
61C0
C360
C260
C660
CC60
C860
D860
70C0
71C0
3F00
6000
00
00
00
ENDCHAR
STARTCHAR Ugrave
ENCODING 217
SWIDTH 800 0
DWIDTH 12 0
BBX 10 19 1 -4
BITMAP
3000
1800
0c00
0000
C0C0
C0C0
C0C0
C0C0
C0C0
C0C0
C0C0
C0C0
6180
7380
1E00
00
00
00
00
ENDCHAR
STARTCHAR Uacute
ENCODING 218
SWIDTH 800 0
DWIDTH 12 0
BBX 10 19 1 -4
BITMAP
0300
0600
0c00
c0c0
C0C0
C0C0
C0C0
C0C0
C0C0
C0C0
C0C0
C0C0
6180
7380
1E00
00
00
00
00
ENDCHAR
STARTCHAR Ucircumflex
ENCODING 219
SWIDTH 800 0
DWIDTH 12 0
BBX 10 19 1 -4
BITMAP
0C00
1E00
3300
0000
C0C0
C0C0
C0C0
C0C0
C0C0
C0C0
C0C0
C0C0
6180
7380
1E00
00
00
00
00
ENDCHAR
STARTCHAR Udiaeresis
ENCODING 220
SWIDTH 800 0
DWIDTH 12 0
BBX 10 19 1 -4
BITMAP
33
3300
0000
c0c0
C0C0
C0C0
C0C0
C0C0
C0C0
C0C0
C0C0
C0C0
6180
7380
1E00
00
00
00
00
ENDCHAR
STARTCHAR Yacute
ENCODING 221
SWIDTH 800 0
DWIDTH 12 0
BBX 10 19 1 -4
BITMAP
0300
0600
0c00
0000
C0C0
C0C0
6180
3300
3300
1E00
0C00
0C00
0C00
0C00
0C00
00
00
00
00
ENDCHAR
STARTCHAR Thorn
ENCODING 222
SWIDTH 666 0
DWIDTH 10 0
BBX 8 19 1 -4
BITMAP
00
00
00
C0
C0
FC
C6
C3
C3
C3
C6
FC
C0
C0
C0
00
00
00
00
ENDCHAR
STARTCHAR EsZetLigature
ENCODING 223
SWIDTH 733 0
DWIDTH 11 0
BBX 9 19 1 -4
BITMAP
00
00
00
3c00
6600
c600
c600
cc00
cc00
c600
c300
c180
c180
d980
cf00
c0
c0
00
00
ENDCHAR
STARTCHAR agrave
ENCODING 224
SWIDTH 600 0
DWIDTH 9 0
BBX 7 19 1 -4
BITMAP
00
00
00
60
30
18
00
3C
66
06
7E
C6
C6
CE
76
00
00
00
00
ENDCHAR
STARTCHAR aacute
ENCODING 225
SWIDTH 600 0
DWIDTH 9 0
BBX 7 19 1 -4
BITMAP
00
00
00
06
0c
18
00
3C
66
06
7E
C6
C6
CE
76
00
00
00
00
ENDCHAR
STARTCHAR acircumflex
ENCODING 226
SWIDTH 600 0
DWIDTH 9 0
BBX 7 19 1 -4
BITMAP
00
00
00
18
3C
66
00
3C
66
06
7E
C6
C6
CE
76
00
00
00
00
ENDCHAR
STARTCHAR atilde
ENCODING 227
SWIDTH 600 0
DWIDTH 9 0
BBX 7 19 1 -4
BITMAP
00
00
00
32
7e
4c
00
3C
66
06
7E
C6
C6
CE
76
00
00
00
00
ENDCHAR
STARTCHAR adiaeresis
ENCODING 228
SWIDTH 600 0
DWIDTH 9 0
BBX 7 19 1 -4
BITMAP
00
00
00
66
66
00
00
3C
66
06
7E
C6
C6
CE
76
00
00
00
00
ENDCHAR
STARTCHAR abolle
ENCODING 229
SWIDTH 600 0
DWIDTH 9 0
BBX 7 19 1 -4
BITMAP
00
00
1c
36
36
1c
00
3C
66
06
7E
C6
C6
CE
76
00
00
00
00
ENDCHAR
STARTCHAR aedihthong
ENCODING 230
SWIDTH 1000 0
DWIDTH 15 0
BBX 13 19 1 -4
BITMAP
00
00
00
00
00
00
00
3DE0
6730
0618
7FF8
C600
C600
CF18
79f0
00
00
00
00
ENDCHAR
STARTCHAR ccedilla
ENCODING 231
SWIDTH 600 0
DWIDTH 9 0
BBX 7 19 1 -4
BITMAP
00
00
00
00
00
00
00
3C
66
C2
C0
C0
C2
66
3C
10
18
4c
38
ENDCHAR
STARTCHAR egrave
ENCODING 232
SWIDTH 666 0
DWIDTH 10 0
BBX 8 19 1 -4
BITMAP
00
00
00
60
30
18
00
3C
66
C3
FF
C0
C0
63
3e
00
00
00
00
ENDCHAR
STARTCHAR eacute
ENCODING 233
SWIDTH 666 0
DWIDTH 10 0
BBX 8 19 1 -4
BITMAP
00
00
00
03
06
0c
00
3C
66
C3
FF
C0
C0
63
3e
00
00
00
00
ENDCHAR
STARTCHAR ecircumflex
ENCODING 234
SWIDTH 666 0
DWIDTH 10 0
BBX 8 19 1 -4
BITMAP
00
00
00
18
3c
66
00
3c
66
c3
ff
c0
c0
63
3e
00
00
00
00
ENDCHAR
STARTCHAR ediaeresis
ENCODING 235
SWIDTH 666 0
DWIDTH 10 0
BBX 8 19 1 -4
BITMAP
00
00
00
66
66
00
00
3C
66
C3
FF
C0
C0
63
3e
00
00
00
00
ENDCHAR
STARTCHAR igrave
ENCODING 236
SWIDTH 266 0
DWIDTH 4 0
BBX 3 19 0 -4
BITMAP
00
00
00
80
c0
60
00
60
60
60
60
60
60
60
60
00
00
00
00
ENDCHAR
STARTCHAR iacute
ENCODING 237
SWIDTH 333 0
DWIDTH 5 0
BBX 4 19 1 -4
BITMAP
00
00
00
30
60
c0
00
C0
C0
C0
C0
C0
C0
C0
C0
00
00
00
00
ENDCHAR
STARTCHAR icircumflex
ENCODING 238
SWIDTH 400 0
DWIDTH 6 0
BBX 6 19 0 -4
BITMAP
00
00
00
30
78
cc
00
30
30
30
30
30
30
30
30
00
00
00
00
ENDCHAR
STARTCHAR idiaeresis
ENCODING 239
SWIDTH 400 0
DWIDTH 6 0
BBX 6 19 0 -4
BITMAP
00
00
00
00
cc
cc
00
30
30
30
30
30
30
30
30
00
00
00
00
ENDCHAR
STARTCHAR ethIcelandic
ENCODING 240
SWIDTH 666 0
DWIDTH 10 0
BBX 8 19 1 -4
BITMAP
00
00
00
EC
38
EC
06
3E
67
C3
C3
C3
C3
66
3C
00
00
00
00
ENDCHAR
STARTCHAR ntilde
ENCODING 241
SWIDTH 666 0
DWIDTH 10 0
BBX 8 19 1 -4
BITMAP
00
00
00
71
ff
8E
00
DE
E3
C3
C3
C3
C3
C3
C3
00
00
00
00
ENDCHAR
STARTCHAR ograve
ENCODING 242
SWIDTH 666 0
DWIDTH 10 0
BBX 8 19 1 -4
BITMAP
00
00
00
60
30
18
00
3C
66
C3
C3
C3
C3
66
3C
00
00
00
00
ENDCHAR
STARTCHAR oacute
ENCODING 243
SWIDTH 666 0
DWIDTH 10 0
BBX 8 19 1 -4
BITMAP
00
00
00
06
0c
18
00
3C
66
C3
C3
C3
C3
66
3C
00
00
00
00
ENDCHAR
STARTCHAR ocircumflex
ENCODING 244
SWIDTH 666 0
DWIDTH 10 0
BBX 8 19 1 -4
BITMAP
00
00
00
18
3C
66
00
3C
66
C3
C3
C3
C3
66
3C
00
00
00
00
ENDCHAR
STARTCHAR otilde
ENCODING 245
SWIDTH 666 0
DWIDTH 10 0
BBX 8 19 1 -4
BITMAP
00
00
00
71
bd
8e
00
3c
66
c3
c3
c3
c3
66
3c
00
00
00
00
ENDCHAR
STARTCHAR odiaeresis
ENCODING 246
SWIDTH 666 0
DWIDTH 10 0
BBX 8 19 1 -4
BITMAP
00
00
00
66
66
00
00
3C
66
C3
C3
C3
C3
66
3C
00
00
00
00
ENDCHAR
STARTCHAR DivideSign
ENCODING 247
SWIDTH 933 0
DWIDTH 14 0
BBX 10 19 2 -4
BITMAP
00
00
00
00
0c
0c
00
00
FFC0
FFC0
00
00
0c
0c
00
00
00
00
00
ENDCHAR
STARTCHAR ooblique
ENCODING 248
SWIDTH 666 0
DWIDTH 10 0
BBX 8 19 1 -4
BITMAP
00
00
00
00
00
00
02
3C
66
CB
CB
D3
D3
66
3C
40
00
00
00
ENDCHAR
STARTCHAR ugrave
ENCODING 249
SWIDTH 666 0
DWIDTH 10 0
BBX 8 19 1 -4
BITMAP
00
00
00
60
30
18
00
C3
C3
C3
C3
C3
C3
C7
7B
00
00
00
00
ENDCHAR
STARTCHAR uacute
ENCODING 250
SWIDTH 666 0
DWIDTH 10 0
BBX 8 19 1 -4
BITMAP
00
00
00
06
0c
18
00
C3
C3
C3
C3
C3
C3
C7
7B
00
00
00
00
ENDCHAR
STARTCHAR ucircumflex
ENCODING 251
SWIDTH 666 0
DWIDTH 10 0
BBX 8 19 1 -4
BITMAP
00
00
00
18
3C
66
00
C3
C3
C3
C3
C3
C3
C7
7B
00
00
00
00
ENDCHAR
STARTCHAR udiaeresis
ENCODING 252
SWIDTH 666 0
DWIDTH 10 0
BBX 8 19 1 -4
BITMAP
00
00
00
66
66
00
00
C3
C3
C3
C3
C3
C3
C7
7B
00
00
00
00
ENDCHAR
STARTCHAR yacute
ENCODING 253
SWIDTH 666 0
DWIDTH 10 0
BBX 8 19 1 -4
BITMAP
00
00
00
03
06
0c
00
C3
C3
66
66
3c
3C
18
18
30
70
60
00
ENDCHAR
STARTCHAR thorn
ENCODING 254
SWIDTH 666 0
DWIDTH 10 0
BBX 8 19 1 -4
BITMAP
00
00
00
C0
C0
C0
C0
DC
E6
C3
C3
C3
C3
E6
DC
C0
C0
C0
00
ENDCHAR
STARTCHAR ydiaeresis
ENCODING 255
SWIDTH 666 0
DWIDTH 10 0
BBX 8 19 1 -4
BITMAP
00
00
00
66
66
00
00
C3
C3
66
66
3c
3C
18
18
30
70
60
00
ENDCHAR
ENDFONT
